<svg xmlns="http://www.w3.org/2000/svg" xmlns:xlink="http://www.w3.org/1999/xlink" fill="none" version="1.1" width="72" height="72" viewBox="0 0 72 72"><g><g><path d="M72,36Q72,36.8837,71.9566,37.7664Q71.9133,38.6491,71.8266,39.5286Q71.74,40.4081,71.6103,41.2823Q71.4807,42.1565,71.3083,43.0232Q71.1358,43.89,70.9211,44.7473Q70.7064,45.6045,70.4498,46.4502Q70.1933,47.2959,69.8956,48.128Q69.5978,48.9601,69.2597,49.7766Q68.9214,50.5931,68.5436,51.392Q68.1657,52.1909,67.7492,52.9703Q67.3326,53.7497,66.8782,54.5077Q66.4239,55.2657,65.9329,56.0005Q65.4419,56.7353,64.9155,57.4452Q64.389,58.155,63.8284,58.8382Q63.2677,59.5213,62.6742,60.1761Q62.0807,60.8309,61.4558,61.4558Q60.8309,62.0807,60.1761,62.6742Q59.5213,63.2677,58.8382,63.8284Q58.155,64.389,57.4452,64.9155Q56.7353,65.4419,56.0005,65.9329Q55.2657,66.4239,54.5077,66.8782Q53.7497,67.3326,52.9703,67.7492Q52.1909,68.1658,51.392,68.5436Q50.5931,68.9215,49.7766,69.2597Q48.9601,69.5979,48.128,69.8956Q47.2959,70.1933,46.4502,70.4499Q45.6046,70.7064,44.7473,70.9211Q43.89,71.1358,43.0232,71.3083Q42.1565,71.4807,41.2823,71.6103Q40.4081,71.74,39.5286,71.8266Q38.6491,71.9133,37.7664,71.9566Q36.8837,72,36,72Q35.1162,72,34.2336,71.9566Q33.3509,71.9133,32.4714,71.8266Q31.5919,71.74,30.7177,71.6103Q29.8435,71.4807,28.9767,71.3083Q28.11,71.1358,27.2527,70.9211Q26.3954,70.7064,25.5497,70.4498Q24.7041,70.1933,23.872,69.8956Q23.0399,69.5978,22.2234,69.2597Q21.4069,68.9214,20.608,68.5436Q19.8091,68.1657,19.0297,67.7492Q18.2503,67.3326,17.4923,66.8782Q16.7343,66.4239,15.9995,65.9329Q15.2647,65.4419,14.5548,64.9155Q13.845,64.389,13.1618,63.8284Q12.4787,63.2677,11.8239,62.6742Q11.1691,62.0807,10.5442,61.4558Q9.91925,60.8309,9.32576,60.1761Q8.73227,59.5213,8.17162,58.8382Q7.61098,58.155,7.08453,57.4452Q6.55808,56.7353,6.06709,56.0005Q5.57611,55.2657,5.12177,54.5077Q4.66743,53.7497,4.25083,52.9703Q3.83424,52.1909,3.45639,51.392Q3.07853,50.5931,2.74034,49.7766Q2.40214,48.9601,2.10441,48.128Q1.80669,47.2959,1.55015,46.4502Q1.29361,45.6046,1.07887,44.7473Q0.864141,43.89,0.69173,43.0232Q0.519319,42.1565,0.389646,41.2823Q0.259972,40.4081,0.17335,39.5286Q0.0867271,38.6491,0.0433636,37.7664Q0,36.8837,0,36Q0,35.1162,0.0433636,34.2336Q0.0867271,33.3509,0.17335,32.4714Q0.259972,31.5919,0.389646,30.7177Q0.519319,29.8435,0.69173,28.9767Q0.864141,28.11,1.07887,27.2527Q1.29361,26.3954,1.55015,25.5497Q1.80669,24.7041,2.10441,23.872Q2.40214,23.0399,2.74034,22.2234Q3.07853,21.4069,3.45639,20.608Q3.83424,19.8091,4.25083,19.0297Q4.66743,18.2503,5.12177,17.4923Q5.57611,16.7343,6.06709,15.9995Q6.55808,15.2647,7.08453,14.5548Q7.61098,13.845,8.17162,13.1618Q8.73227,12.4787,9.32576,11.8239Q9.91925,11.1691,10.5442,10.5442Q11.1691,9.91925,11.8239,9.32576Q12.4787,8.73227,13.1618,8.17162Q13.845,7.61098,14.5548,7.08453Q15.2647,6.55808,15.9995,6.06709Q16.7343,5.57611,17.4923,5.12177Q18.2503,4.66743,19.0297,4.25083Q19.8091,3.83424,20.608,3.45639Q21.4069,3.07853,22.2234,2.74034Q23.0399,2.40214,23.872,2.10441Q24.7041,1.80669,25.5497,1.55015Q26.3954,1.29361,27.2527,1.07887Q28.11,0.864141,28.9767,0.69173Q29.8435,0.519319,30.7177,0.389646Q31.5919,0.259972,32.4714,0.17335Q33.3509,0.0867271,34.2336,0.0433636Q35.1162,0,36,0Q36.8837,0,37.7664,0.0433636Q38.6491,0.0867271,39.5286,0.17335Q40.4081,0.259972,41.2823,0.389646Q42.1565,0.519319,43.0232,0.69173Q43.89,0.864141,44.7473,1.07887Q45.6045,1.29361,46.4502,1.55015Q47.2959,1.80669,48.128,2.10441Q48.9601,2.40214,49.7766,2.74034Q50.5931,3.07853,51.392,3.45639Q52.1909,3.83424,52.9703,4.25083Q53.7497,4.66743,54.5077,5.12177Q55.2657,5.57611,56.0005,6.06709Q56.7353,6.55808,57.4452,7.08453Q58.155,7.61098,58.8382,8.17162Q59.5213,8.73227,60.1761,9.32576Q60.8309,9.91925,61.4558,10.5442Q62.0807,11.1691,62.6742,11.8239Q63.2677,12.4787,63.8284,13.1618Q64.389,13.845,64.9155,14.5548Q65.4419,15.2647,65.9329,15.9995Q66.4239,16.7343,66.8782,17.4923Q67.3326,18.2503,67.7492,19.0297Q68.1658,19.8091,68.5436,20.608Q68.9215,21.4069,69.2597,22.2234Q69.5979,23.0399,69.8956,23.872Q70.1933,24.7041,70.4499,25.5497Q70.7064,26.3954,70.9211,27.2527Q71.1358,28.11,71.3083,28.9767Q71.4807,29.8435,71.6103,30.7177Q71.74,31.5919,71.8266,32.4714Q71.9133,33.3509,71.9566,34.2336Q72,35.1162,72,36ZM37.5393,43.4235C37.5582,43.576,37.5582,43.7303,37.5393,43.8828L37.5765,43.8828C36.8609,47.6998,32.3797,49.4305,29.2841,47.0856C32.289,48.034,35.4587,46.1931,36.1241,43.1132C36.1426,42.9648,36.1426,42.8147,36.1241,42.6663L36.1241,17.3794L42.5793,17.3794C42.6662,17.6401,42.6662,17.9008,42.6662,18.149L37.5393,18.149L37.5393,43.4235ZM51.5545,32.8592L51.5545,26.9256C50.405,26.7369,49.3065,26.3144,48.3269,25.6842C47.2039,25.2163,46.1833,24.5331,45.3227,23.6732C43.9072,22.263,43.0023,20.4244,42.7459,18.4479C43.0102,20.4112,43.9147,22.2355,45.3227,23.6357C46.1833,24.4957,47.2039,25.1789,48.3269,25.6468C47.7709,25.2839,47.2512,24.8682,46.7752,24.4054C45.1437,22.7386,44.1845,20.5285,44.0814,18.1985L42.7171,18.1985C42.7167,18.1944,42.7162,18.1903,42.7158,18.1863L37.5889,18.1863L37.5889,43.4608C37.6079,43.6133,37.6079,43.7676,37.5889,43.9201C36.8733,47.737,32.3921,49.4678,29.2965,47.1228C29.0884,47.0586,28.8862,46.9763,28.6925,46.8767C28.871,46.9651,29.0564,47.039,29.2469,47.0978C27.4691,45.8667,26.6148,43.6811,27.0865,41.5708C27.5581,39.4604,29.2617,37.8465,31.3945,37.4895C31.7172,37.4895,32.04,37.4026,32.3627,37.353L32.3627,30.8978C31.8903,30.8872,31.4176,30.9066,30.9476,30.9559L30.9476,30.1656C29.792,30.1437,28.6401,30.3029,27.5338,30.6373C21.0062,32.5796,17.4578,39.614,19.7752,46.018C20.8801,48.982,23.0965,51.3938,25.9475,52.7462C26.0123,52.7882,26.0777,52.8296,26.1434,52.8704C26.1999,52.8954,26.2565,52.92,26.3134,52.9441C28.6825,54.3798,31.4884,54.9226,34.2248,54.4716C39.9449,53.5099,44.1394,48.5657,44.1558,42.7654L44.1558,30.9655L44.9627,31.4566C45.1541,31.5473,45.3471,31.6338,45.5417,31.7159C47.8206,32.9861,50.3911,33.6508,53.0069,33.6412L53.0069,27.0619C52.5199,27.0545,52.0343,27.0089,51.5545,26.9254L51.5545,32.8592L51.5545,32.8592ZM42.7034,30.1975Q42.6787,30.1816,42.6538,30.1656L42.6538,42.0083C42.6363,47.8059,38.4409,52.746,32.7227,53.7021C32.1157,53.8036,31.5041,53.8559,30.8938,53.8598C31.5206,53.8585,32.1489,53.8061,32.7724,53.7019C38.4906,52.7458,42.686,47.8057,42.7034,42.0081L42.7034,30.1975ZM48.3269,25.647C49.3508,26.0691,50.447,26.2883,51.5545,26.2925L51.5545,26.8884C50.405,26.6997,49.3065,26.2772,48.3269,25.647ZM25.5352,41.3378L25.5352,41.338C25.5339,41.3493,25.5327,41.3606,25.5315,41.3719C25.2899,43.6923,26.5596,45.9091,28.6864,46.8737L25.5352,41.3378Z" fill-rule="evenodd" fill="#141614" fill-opacity="1"/></g></g></svg>