<svg xmlns="http://www.w3.org/2000/svg" xmlns:xlink="http://www.w3.org/1999/xlink" fill="none" version="1.1" width="81" height="81" viewBox="0 0 81 81"><defs><clipPath id="master_svg0_467_0218"><rect x="0" y="0" width="81" height="81" rx="0"/></clipPath></defs><g clip-path="url(#master_svg0_467_0218)"><g><path d="M70.8748046875,4.0498046875L10.1248046875,4.0498046875C6.7633046875,4.0498046875,4.0498046875,6.7633046875,4.0498046875,10.1248046875L4.0498046875,70.8748046875C4.0498046875,74.2363046875,6.7633046875,76.9498046875,10.1248046875,76.9498046875L70.8748046875,76.9498046875C74.2363046875,76.9498046875,76.9498046875,74.2363046875,76.9498046875,70.8748046875L76.9498046875,10.1248046875C76.9498046875,6.7633046875,74.2363046875,4.0498046875,70.8748046875,4.0498046875ZM47.9518046875,60.8713046875L37.5028046875,45.4408046875L24.2998046875,60.8713046875L20.7358046875,60.8713046875L35.9233046875,43.1323046875L19.925804687499998,19.561304687499998L32.3998046875,19.561304687499998L42.8488046875,34.9918046875L56.0518046875,19.561304687499998L59.6158046875,19.561304687499998L44.4283046875,37.3003046875L60.4258046875,60.8713046875L47.9518046875,60.8713046875Z" fill="#141614" fill-opacity="1"/></g><g><path d="M40.945498046875,37.219673828124996L30.536998046875,22.315673828125L24.947998046875,22.315673828125C31.630498046875,31.833173828125,43.577998046874995,48.964673828125,50.219998046875,58.441673828125L55.727998046875,58.441673828125C54.715498046875,56.983673828125,41.593498046875,38.151173828124996,40.945498046875,37.219673828124996Z" fill="#141614" fill-opacity="1"/></g></g></svg>