<?xml version="1.0" standalone="no"?><!DOCTYPE svg PUBLIC "-//W3C//DTD SVG 1.1//EN" "http://www.w3.org/Graphics/SVG/1.1/DTD/svg11.dtd"><svg t="1706277631193" class="icon" viewBox="0 0 1024 1024" version="1.1" xmlns="http://www.w3.org/2000/svg" p-id="3177" xmlns:xlink="http://www.w3.org/1999/xlink" width="200" height="200"><path d="M221.274112 699.389952l157.515776 0c12.075008 0 21.8624-9.78944 21.8624-21.864448L400.652288 92.688384c0-12.075008-9.78944-21.8624-21.8624-21.8624L355.28704 70.825984 355.28704 48.463872c0-6.17472-5.005312-11.180032-11.180032-11.180032-6.17472 0-11.180032 5.005312-11.180032 11.180032l0 22.360064-111.652864 0c-12.075008 0-21.8624 9.787392-21.8624 21.8624l0 584.83712C199.411712 689.600512 209.199104 699.389952 221.274112 699.389952z" fill="#2c2c2c" p-id="3178"></path><path d="M877.056 218.01984 423.936 218.01984l0 482.21184c0 11.309056-9.168896 20.48-20.48 20.48L195.397632 720.71168c-11.311104 0-20.48-9.170944-20.48-20.48L174.917632 218.01984 125.579264 218.01984c-11.311104 0-20.48 9.168896-20.48 20.48l0 585.076736c0 11.309056 9.168896 20.48 20.48 20.48L877.056 844.056576c11.309056 0 20.48-9.170944 20.48-20.48L897.536 238.49984C897.536 227.188736 888.365056 218.01984 877.056 218.01984zM459.42784 269.918208c0-11.311104 9.168896-20.48 20.48-20.48l363.403264 0c11.309056 0 20.48 9.168896 20.48 20.48L863.791104 386.048c0 11.311104-9.170944 20.48-20.48 20.48L479.90784 406.528c-11.311104 0-20.48-9.168896-20.48-20.48L459.42784 269.918208zM536.180736 785.477632c0 19.163136-15.53408 34.701312-34.701312 34.701312l-1.57696 0c-19.165184 0-34.70336-15.538176-34.70336-34.701312l0-1.579008c0-19.163136 15.536128-34.701312 34.70336-34.701312l1.57696 0c19.167232 0 34.701312 15.538176 34.701312 34.701312L536.180736 785.477632zM536.180736 701.509632c0 19.163136-15.53408 34.701312-34.701312 34.701312l-1.57696 0c-19.165184 0-34.70336-15.538176-34.70336-34.701312l0-1.579008c0-19.163136 15.536128-34.701312 34.70336-34.701312l1.57696 0c19.167232 0 34.701312 15.538176 34.701312 34.701312L536.180736 701.509632zM536.180736 617.541632c0 19.163136-15.53408 34.701312-34.701312 34.701312l-1.57696 0c-19.165184 0-34.70336-15.538176-34.70336-34.701312l0-1.579008c0-19.163136 15.536128-34.701312 34.70336-34.701312l1.57696 0c19.167232 0 34.701312 15.538176 34.701312 34.701312L536.180736 617.541632zM536.180736 533.573632c0 19.163136-15.53408 34.701312-34.701312 34.701312l-1.57696 0c-19.165184 0-34.70336-15.538176-34.70336-34.701312l0-1.579008c0-19.163136 15.536128-34.701312 34.70336-34.701312l1.57696 0c19.167232 0 34.701312 15.536128 34.701312 34.701312L536.180736 533.573632zM646.772736 785.477632c0 19.163136-15.53408 34.701312-34.701312 34.701312l-1.57696 0c-19.165184 0-34.701312-15.538176-34.701312-34.701312l0-1.579008c0-19.163136 15.536128-34.701312 34.701312-34.701312l1.57696 0c19.167232 0 34.701312 15.538176 34.701312 34.701312L646.772736 785.477632zM646.772736 701.509632c0 19.163136-15.53408 34.701312-34.701312 34.701312l-1.57696 0c-19.165184 0-34.701312-15.538176-34.701312-34.701312l0-1.579008c0-19.163136 15.536128-34.701312 34.701312-34.701312l1.57696 0c19.167232 0 34.701312 15.538176 34.701312 34.701312L646.772736 701.509632zM646.772736 617.541632c0 19.163136-15.53408 34.701312-34.701312 34.701312l-1.57696 0c-19.165184 0-34.701312-15.538176-34.701312-34.701312l0-1.579008c0-19.163136 15.536128-34.701312 34.701312-34.701312l1.57696 0c19.167232 0 34.701312 15.538176 34.701312 34.701312L646.772736 617.541632zM646.772736 533.573632c0 19.163136-15.53408 34.701312-34.701312 34.701312l-1.57696 0c-19.165184 0-34.701312-15.538176-34.701312-34.701312l0-1.579008c0-19.163136 15.536128-34.701312 34.701312-34.701312l1.57696 0c19.167232 0 34.701312 15.536128 34.701312 34.701312L646.772736 533.573632zM757.364736 785.477632c0 19.163136-15.53408 34.701312-34.701312 34.701312l-1.57696 0c-19.165184 0-34.701312-15.538176-34.701312-34.701312l0-1.579008c0-19.163136 15.536128-34.701312 34.701312-34.701312l1.57696 0c19.167232 0 34.701312 15.538176 34.701312 34.701312L757.364736 785.477632zM757.364736 701.509632c0 19.163136-15.53408 34.701312-34.701312 34.701312l-1.57696 0c-19.165184 0-34.701312-15.538176-34.701312-34.701312l0-1.579008c0-19.163136 15.536128-34.701312 34.701312-34.701312l1.57696 0c19.167232 0 34.701312 15.538176 34.701312 34.701312L757.364736 701.509632zM757.364736 617.541632c0 19.163136-15.53408 34.701312-34.701312 34.701312l-1.57696 0c-19.165184 0-34.701312-15.538176-34.701312-34.701312l0-1.579008c0-19.163136 15.536128-34.701312 34.701312-34.701312l1.57696 0c19.167232 0 34.701312 15.538176 34.701312 34.701312L757.364736 617.541632zM757.364736 533.573632c0 19.163136-15.53408 34.701312-34.701312 34.701312l-1.57696 0c-19.165184 0-34.701312-15.538176-34.701312-34.701312l0-1.579008c0-19.163136 15.536128-34.701312 34.701312-34.701312l1.57696 0c19.167232 0 34.701312 15.536128 34.701312 34.701312L757.364736 533.573632zM867.956736 785.477632c0 19.163136-15.53408 34.701312-34.701312 34.701312l-1.57696 0c-19.165184 0-34.701312-15.538176-34.701312-34.701312l0-1.579008c0-19.163136 15.536128-34.701312 34.701312-34.701312l1.57696 0c19.167232 0 34.701312 15.538176 34.701312 34.701312L867.956736 785.477632zM867.956736 701.509632c0 19.163136-15.53408 34.701312-34.701312 34.701312l-1.57696 0c-19.165184 0-34.701312-15.538176-34.701312-34.701312l0-1.579008c0-19.163136 15.536128-34.701312 34.701312-34.701312l1.57696 0c19.167232 0 34.701312 15.538176 34.701312 34.701312L867.956736 701.509632zM867.956736 617.541632c0 19.163136-15.53408 34.701312-34.701312 34.701312l-1.57696 0c-19.165184 0-34.701312-15.538176-34.701312-34.701312l0-1.579008c0-19.163136 15.536128-34.701312 34.701312-34.701312l1.57696 0c19.167232 0 34.701312 15.538176 34.701312 34.701312L867.956736 617.541632zM867.956736 533.573632c0 19.163136-15.53408 34.701312-34.701312 34.701312l-1.57696 0c-19.165184 0-34.701312-15.538176-34.701312-34.701312l0-1.579008c0-19.163136 15.536128-34.701312 34.701312-34.701312l1.57696 0c19.167232 0 34.701312 15.536128 34.701312 34.701312L867.956736 533.573632z" fill="#2c2c2c" p-id="3179"></path></svg>