<svg xmlns="http://www.w3.org/2000/svg" xmlns:xlink="http://www.w3.org/1999/xlink" fill="none" version="1.1" width="70" height="70" viewBox="0 0 70 70"><g><path d="M67.2,0L2.8,0C1.25125,0,0,1.25125,0,2.8L0,67.2C0,68.7487,1.25125,70,2.8,70L67.2,70C68.7487,70,70,68.7487,70,67.2L70,2.8C70,1.25125,68.7487,0,67.2,0ZM59.115,20.4313L53.5238,20.4313C49.14,20.4313,48.2913,22.5138,48.2913,25.5763L48.2913,32.3225L58.7563,32.3225L57.3913,42.8838L48.2913,42.8838L48.2913,70L37.38,70L37.38,42.8925L28.2538,42.8925L28.2538,32.3225L37.38,32.3225L37.38,24.535C37.38,15.4963,42.9013,10.57,50.9688,10.57C54.8363,10.57,58.1525,10.8588,59.1238,10.99L59.1238,20.4313L59.115,20.4313Z" fill="#141614" fill-opacity="1"/></g></svg>