<svg xmlns="http://www.w3.org/2000/svg" xmlns:xlink="http://www.w3.org/1999/xlink" fill="none" version="1.1" width="72" height="72" viewBox="0 0 72 72"><g><g><g><path d="M36.0025,0C16.1194,0,0,16.1178,0,35.9967C0,50.7414,8.8629,63.4048,21.5501,68.9721C21.4427,66.4563,21.5266,63.4419,22.171,60.7078Q22.867,57.7834,26.8082,41.0879Q25.6594,38.7892,25.6594,35.3942C25.6594,30.058,28.7507,26.0745,32.5982,26.0745C35.8764,26.0745,37.4546,28.5356,37.4546,31.4787C37.4546,34.7685,35.3581,39.6951,34.2793,44.2539C33.3782,48.0737,36.1938,51.1896,39.9575,51.1896C46.7798,51.1896,51.3748,42.4256,51.3748,32.0483C51.3748,24.16,46.0605,18.2539,36.3947,18.2539C25.4725,18.2539,18.6735,26.3968,18.6735,35.4922C18.6735,38.6303,19.5936,40.8403,21.0458,42.5517C21.7091,43.3408,21.8024,43.6584,21.5596,44.5597C21.3867,45.2229,20.9944,46.8175,20.8264,47.4478C20.5879,48.361,19.8503,48.6855,19.0239,48.3516C13.9949,46.2944,11.6553,40.7911,11.6553,34.598C11.6553,24.37,20.2801,12.1097,37.38,12.1097C51.1269,12.1097,60.1768,22.0528,60.1768,32.7299C60.1768,46.8524,52.3225,57.4051,40.7468,57.4051C36.8616,57.4051,33.2053,55.3011,31.9538,52.9149Q29.862,61.212,29.4232,62.8113C28.6573,65.5851,27.163,68.3625,25.7993,70.5245C29.0356,71.4794,32.4582,72,36.0026,72C55.8854,72,72,55.8825,72,35.9964C72,16.1178,55.8854,0,36.0025,0Z" fill="#141614" fill-opacity="1"/></g></g></g></svg>