<svg xmlns="http://www.w3.org/2000/svg" xmlns:xlink="http://www.w3.org/1999/xlink" fill="none" version="1.1" width="70.068359375" height="70" viewBox="0 0 70.068359375 70"><defs><clipPath id="master_svg0_467_0224"><rect x="0" y="0" width="70.068359375" height="70" rx="0"/></clipPath></defs><g clip-path="url(#master_svg0_467_0224)"><g><path d="M62.8471,0L7.16058,0C3.20779,0,0,3.20007,0,7.15672L0,62.8433C0,66.7999,3.20779,70,7.16058,70L62.8471,70C66.7999,70,70.0077,66.8038,70.0077,62.8433L70.0077,7.15672C70.0077,3.20007,66.8038,0,62.8471,0ZM40.327,11.8198L43.7355,11.8198L43.7355,22.5703C43.7355,24.6355,43.8011,24.5737,43.8706,24.8324C43.944,25.1064,44.191,25.7511,44.9901,25.7511C45.8393,25.7511,46.0748,25.0717,46.1404,24.7822C46.1944,24.5313,46.2562,24.5814,46.2562,22.4275L46.2562,11.8198L49.6609,11.8198L49.6609,27.9552L46.2099,27.9552L46.2523,27.1407L45.2024,26.7045C44.936,27.245,44.6272,27.631,44.2489,27.9012C43.8668,28.1675,43.4383,28.3026,42.9288,28.3026C42.342,28.3026,41.8633,28.1753,41.5005,27.9243C41.1454,27.6812,40.8983,27.3801,40.7362,26.9979C40.5586,26.5733,40.4467,26.1139,40.4042,25.6623C40.354,25.1412,40.327,24.0642,40.327,22.4584L40.327,11.8198ZM28.4841,18.5287C28.4841,16.8457,28.6269,15.5448,28.8971,14.6223C29.1519,13.7692,29.6035,13.0975,30.279,12.5802C30.9661,12.0437,31.8733,11.7773,32.9773,11.7773C33.9192,11.7773,34.7259,11.9626,35.386,12.31C36.0268,12.6497,36.5209,13.0936,36.8567,13.6148C37.2003,14.1629,37.4396,14.7226,37.567,15.2862C37.6982,15.8729,37.7639,16.8225,37.7639,18.1041L37.7639,20.9452C37.7639,22.6128,37.6982,23.8287,37.5786,24.5776C37.4628,25.2647,37.208,25.9209,36.8259,26.5231C36.4437,27.1137,35.9689,27.5538,35.3629,27.8394C34.7375,28.1367,34.0002,28.2911,33.1741,28.2911C32.2323,28.2911,31.4332,28.1598,30.7924,27.8896C30.198,27.6503,29.7425,27.3029,29.4259,26.8358C29.1017,26.3494,28.8624,25.7511,28.7195,25.0562C28.5651,24.3074,28.4879,23.1416,28.4879,21.586L28.4841,18.5287ZM20.5128,6.07202L23.2844,14.9928C23.767,12.6613,24.7011,9.43421,25.4423,6.07202L27.9552,6.07202L24.7204,18.7989L24.6973,18.8993L24.6973,27.9475L21.752,27.9475L21.752,18.8993L21.7288,18.8028L17.9999,6.07202L20.5128,6.07202ZM60.6353,55.9722C60.1952,59.9868,56.6323,63.2756,52.637,63.5458C40.8713,64.0515,29.1403,64.0515,17.3784,63.5458C13.3793,63.2756,9.82023,59.9868,9.37631,55.9722C8.94012,49.6184,8.94012,43.3765,9.37631,37.0304C9.81637,33.0159,13.3793,29.7348,17.3784,29.453C29.1403,28.9511,40.8713,28.9511,52.637,29.453C56.6362,29.7348,60.1952,33.0159,60.6353,37.0304C61.0753,43.3765,61.0753,49.6184,60.6353,55.9722ZM33.124,26.361C33.6181,26.361,34.0041,26.0637,34.1778,25.5503C34.2589,25.3149,34.3554,24.8671,34.3554,23.6473L34.3554,16.6566C34.3554,15.2437,34.2743,14.7882,34.1894,14.5296C34.0157,14.0046,33.6335,13.6997,33.1355,13.6997C32.6453,13.6997,32.2593,13.9931,32.0779,14.5142C31.9852,14.7651,31.8926,15.2322,31.8926,16.6566L31.8926,23.4543C31.8926,24.7899,31.9891,25.2493,32.074,25.5079C32.2516,26.0483,32.6337,26.361,33.124,26.361ZM13.9622,38.2503L16.7415,38.2503L17.2935,38.2503L17.2935,38.8177L17.2935,56.9758L20.7831,56.9758L20.7831,38.8177L20.7831,38.2503L21.3312,38.2503L24.1221,38.2503L24.1221,34.6989L13.9622,34.6989L13.9622,38.2503ZM30.4643,50.5834C30.4643,52.5946,30.4064,53.0925,30.3601,53.3048C30.2404,53.826,29.8235,54.1425,29.2368,54.1425C28.6771,54.1425,28.2718,53.8414,28.1405,53.3434C28.0826,53.1311,28.0208,52.6332,28.0208,50.7185L28.0208,40.0761L24.7166,40.0761L24.7166,51.672C24.7166,53.2006,24.7397,54.2197,24.786,54.7215C24.8324,55.1809,24.952,55.6364,25.1373,56.0649C25.3033,56.4509,25.5542,56.7481,25.9055,56.9758C26.2452,57.2113,26.6968,57.3233,27.2411,57.3233C27.7082,57.3233,28.1135,57.2036,28.4686,56.9604C28.8353,56.7134,29.1557,56.3196,29.4182,55.7985L30.4643,56.0533L30.418,56.9952L33.7686,56.9952L33.7686,40.0761L30.4682,40.0761L30.4643,50.5834ZM45.0789,40.9331C44.8974,40.5741,44.6349,40.3077,44.2875,40.1031C43.9285,39.8985,43.4885,39.802,42.9828,39.802C42.5582,39.802,42.176,39.9063,41.8093,40.134C41.4349,40.3733,41.0836,40.7246,40.7671,41.2187L39.7596,42.7743L39.7596,40.8983L39.7596,34.7028L36.4553,34.7028L36.4553,56.9797L39.5743,56.9797L39.7673,55.9876L40.0375,54.6057L40.7709,55.7946C41.0952,56.3273,41.4542,56.7172,41.8325,56.9758C42.1915,57.2152,42.5659,57.3387,42.9751,57.3387C43.5541,57.3387,44.0405,57.1341,44.4651,56.7365C44.909,56.3042,45.1831,55.8217,45.3027,55.2349C45.434,54.5864,45.4996,53.5596,45.4996,53.6291L45.4996,44.7855C45.4996,44.8241,45.6309,43.9054,45.434,42.0795C45.3993,41.6974,45.2796,41.3229,45.0789,40.9331ZM42.203,50.7494C42.203,52.3321,42.122,52.8146,42.0564,53.0655C41.902,53.6098,41.5121,53.9263,40.9871,53.9263C40.4776,53.9263,40.0877,53.6252,39.9256,53.0964C39.8484,52.8571,39.7634,52.3861,39.7634,50.9386L39.7634,46.4569C39.7634,44.9515,39.8406,44.4998,39.9101,44.2837C40.0607,43.7857,40.4544,43.4846,40.9601,43.4846C41.4812,43.4846,41.8749,43.8012,42.0409,44.3377C42.1143,44.5732,42.2108,45.0441,42.2108,46.4647L42.2108,50.7533L42.203,50.7494ZM51.2319,49.0278L51.7839,49.0278L56.9372,49.0278L56.9372,47.1904C56.9372,45.5266,56.7828,43.6197,56.4779,42.728C56.1884,41.8672,55.6981,41.2033,54.9763,40.6899C54.2776,40.1958,53.3589,39.9371,52.251,39.9371C51.3516,39.9371,50.5487,40.1456,49.8654,40.5663C49.1822,40.9871,48.7074,41.5777,48.4063,42.3768C48.0898,43.2067,47.9238,44.3879,47.9238,46.484L47.9238,51.6759C47.9238,52.3437,48.001,53.3319,48.14,53.9804C48.2789,54.6057,48.5298,55.1847,48.885,55.7059C49.2208,56.1961,49.711,56.5937,50.3287,56.8832C50.9617,57.1766,51.7106,57.3271,52.5521,57.3271C53.4129,57.3271,54.1309,57.1766,54.6791,56.8909C55.2272,56.6014,55.6827,56.1575,56.0455,55.5708C56.4238,54.9608,56.667,54.378,56.7674,53.853C56.8755,53.301,56.9295,52.4826,56.9295,51.4172L56.9295,50.6259L53.8568,50.6259L53.8568,52.4479C53.8568,53.4129,53.7912,54.0421,53.6561,54.4204C53.467,54.9338,53.0308,55.2349,52.4633,55.2349C51.9654,55.2349,51.5793,54.9879,51.4056,54.5439C51.3207,54.3355,51.2242,53.9611,51.2242,52.7992L51.2242,49.5644L51.2242,49.0317L51.2319,49.0317L51.2319,49.0278ZM51.2319,46.6538L51.2319,44.743C51.2319,43.3379,51.3053,43.5502,51.367,43.3611C51.5137,42.9095,51.9113,42.6431,52.4633,42.6431C52.9574,42.6431,53.3357,42.9326,53.4863,43.4267C53.548,43.6274,53.6252,43.4344,53.6252,44.743L53.6252,46.6538L53.6252,47.1904L53.0732,47.1904L51.7878,47.1904L51.2358,47.1904L51.2319,46.6538Z" fill="#141614" fill-opacity="1"/></g></g></svg>