<svg xmlns="http://www.w3.org/2000/svg" xmlns:xlink="http://www.w3.org/1999/xlink" fill="none" version="1.1" width="1035" height="107" viewBox="0 0 1035 107"><defs><filter id="master_svg0_234_06459" filterUnits="objectBoundingBox" color-interpolation-filters="sRGB" x="0" y="0" width="721" height="77"><feFlood flood-opacity="0" result="BackgroundImageFix"/><feBlend mode="normal" in="SourceGraphic" in2="BackgroundImageFix" result="shape"/><feGaussianBlur in="BackgroundImage" stdDeviation="5"/><feComposite in2="SourceAlpha" operator="in" result="effect1_foregroundBlur"/><feBlend mode="normal" in="SourceGraphic" in2="effect1_foregroundBlur" result="shape"/></filter><clipPath id="master_svg1_234_06459"><rect x="0" y="11" width="721" height="77" rx="0"/></clipPath><filter id="master_svg2_415_6467" filterUnits="objectBoundingBox" color-interpolation-filters="sRGB" x="-20" y="-16" width="342" height="117"><feFlood flood-opacity="0" result="BackgroundImageFix"/><feColorMatrix in="SourceAlpha" type="matrix" values="0 0 0 0 0 0 0 0 0 0 0 0 0 0 0 0 0 0 127 0"/><feOffset dy="4" dx="0"/><feGaussianBlur stdDeviation="5"/><feColorMatrix type="matrix" values="0 0 0 0 0 0 0 0 0 0 0 0 0 0 0 0 0 0 0.30000001192092896 0"/><feBlend mode="normal" in2="BackgroundImageFix" result="effect1_dropShadow"/><feBlend mode="normal" in="SourceGraphic" in2="effect1_dropShadow" result="shape"/></filter><clipPath id="master_svg3_415_6467"><rect x="718" y="11" width="302" height="77" rx="0"/></clipPath></defs><g><g filter="url(#master_svg0_234_06459)"><g clip-path="url(#master_svg1_234_06459)"><rect x="0" y="11" width="721" height="77" rx="0" fill="#000000" fill-opacity="0.20000000298023224"/><g><g><path d="M40.84375,49.0625L40.84375,53.4287Q40.84375,54.5554,40.92188,56.073499999999996Q41.01562,58.2017,41.07812,58.4287Q41.14062,58.6555,41.53125,58.8904Q41.92188,59.125,42.79688,59.125L43.85938,59.125L43.85938,60.1094Q41.82812,60,39.9375,60Q38.10938,60,34.703125,60.1094L34.703125,59.125L35.67188,59.125Q37.3125,59.125,37.60938,58.5703Q37.90625,58.0156,37.90625,53.4844L37.90625,44.0625Q37.90625,39.96875,37.60156,39.41406Q37.29688,38.85938,35.85938,38.85938L34.703125,38.85938L34.703125,37.875Q37.28125,37.98438,39.5,37.98438Q41.73438,37.98438,43.85938,37.875L43.85938,38.85938L43.1875,38.85938Q41.73438,38.85938,41.39062,39.09424Q41.04688,39.32886,40.96875,39.86108Q40.84375,40.7222,40.84375,44.0405L40.84375,47.6094Q43.625,47.7188,47.9219,47.7188Q51.5625,47.7188,53.8438,47.6094L53.8438,44.5571Q53.8438,41.8804,53.6562,40.0647Q53.5938,39.42285,53.2344,39.14111Q52.875,38.85938,51.7656,38.85938L50.6406,38.85938L50.6406,37.875Q53.0312,37.98438,55.1719,37.98438Q57.4844,37.98438,59.9844,37.875L59.9844,38.85938L58.7969,38.85938Q57.5938,38.85938,57.2578,39.125Q56.9219,39.39062,56.851600000000005,40.1016Q56.7812,40.8125,56.7812,44.5781L56.7812,53.2188Q56.7812,58.0156,57.0547,58.5703Q57.3281,59.125,58.7656,59.125L59.9844,59.125L59.9844,60.1094Q57.8281,60,55.5312,60Q52.9062,60,50.6406,60.1094L50.6406,59.125L51.7188,59.125Q52.9062,59.125,53.25,58.851299999999995Q53.5938,58.5774,53.6719,57.8262Q53.8438,56.2141,53.8438,53.131299999999996L53.8438,49.0625Q51.6406,48.9531,48.2188,48.9531Q43.34375,48.9531,40.84375,49.0625ZM61.75,52.6094Q61.75,50.4531,62.75,48.710899999999995Q63.75,46.9688,65.5547,45.9844Q67.3594,45,69.6562,45Q72.9844,45,74.9844,46.9688Q76.9844,48.9375,76.9844,52.2188Q76.9844,56.0938,74.375,58.375Q72.0469,60.4219,68.7969,60.4219Q65.6719,60.4219,63.710899999999995,58.3203Q61.75,56.2188,61.75,52.6094ZM64.6875,51.506299999999996Q64.6875,54.729,66.0078,57.0208Q67.3281,59.3125,69.8125,59.3125Q71.7031,59.3125,72.8672,57.8733Q74.0312,56.4341,74.0312,53.5088Q74.0312,51.1465,73.3438,49.418Q72.6562,47.689499999999995,71.5312,46.8994Q70.4062,46.1094,69.0156,46.1094Q67.7812,46.1094,66.78909999999999,46.7351Q65.7969,47.3608,65.3281,48.4089Q64.6875,49.832499999999996,64.6875,51.506299999999996ZM84.1094,47.798100000000005L86.2031,45.922399999999996Q86.7031,45.469,87.2656,45.2815Q88.0781,45,88.875,45Q90.6406,45,91.71090000000001,45.6331Q92.7812,46.2661,93.6719,47.9075L95.6875,46.063Q96.2031,45.594,96.9531,45.344Q97.9375,45,98.8594,45Q100.2656,45,101.4062,45.657Q102.5469,46.314,103.1016,47.3621Q103.6562,48.4099,103.6562,50.2087L103.6094,56.325Q103.6094,58.373999999999995,103.8438,58.7417Q104.0781,59.1094,105.0469,59.1562L106.1875,59.2031L106.1875,60.1094L105.4375,60.073Q103.625,60,102.9844,60Q102,60,100.6875,60.1094Q100.9062,57.2192,100.9062,53.3501Q100.9062,50.0811,100.625,49.0547Q100.3438,48.028099999999995,99.5469,47.443799999999996Q98.75,46.8594,97.5469,46.8594Q96.1875,46.8594,95.2188,47.5945Q94.25,48.3293,94.0156,49.356700000000004Q93.8594,50.004599999999996,93.8594,54.9199Q93.8594,57.8123,93.9062,58.2153Q93.9531,58.6184,94.16409999999999,58.784400000000005Q94.375,58.950199999999995,95.5156,59.0767L96.5625,59.2031L96.5625,60.1094Q93.7969,60,92.5,60Q91.4688,60,88.5,60.1094L88.5,59.2031L89.5469,59.2031Q90.4844,59.2031,90.7656,58.9373Q91.0469,58.671099999999996,91.0938,57.685500000000005Q91.2188,55.1199,91.2188,52.335Q91.2188,49.8474,90.8828,48.9011Q90.5469,47.9546,89.7422,47.407Q88.9375,46.8594,87.8125,46.8594Q86.6094,46.8594,85.625,47.5322Q84.6406,48.2048,84.2812,49.1592Q84.0469,49.816199999999995,84.0469,52.8826Q84.0469,56.246300000000005,84.1094,57.8264Q84.1406,58.561800000000005,84.3438,58.765100000000004Q84.5469,58.9685,85.6875,59.0779L86.7656,59.2031L86.7656,60.1094Q84.8125,60,83.0781,60Q81.1094,60,78.7969,60.1094L78.7969,59.2031L79.9844,59.2031Q81,59.2031,81.2031,58.662800000000004Q81.4062,58.122299999999996,81.4062,52.7803Q81.4062,48.864000000000004,81.3594,48.1592Q81.3125,47.4541,81.0938,47.2661Q80.875,47.0781,79.7656,47.0781L78.7969,47.0781L78.7969,46.2188Q81.0938,45.9062,82.75,45.3594L83.8906,44.9219Q84.1719,44.9219,84.1719,45.299099999999996L84.1406,45.865Q84.0938,46.7292,84.1094,47.798100000000005ZM110.2031,52.5469Q110.2812,55.625,111.7812,57.2188Q113.2812,58.8125,115.7188,58.8125Q116.8125,58.8125,117.8906,58.4531Q118.9688,58.0938,120.0312,57.375L120.2969,57.6094L119.7969,58.9219Q118.5,59.6719,117.125,60.0469Q115.75,60.4219,114.2969,60.4219Q111.125,60.4219,109.1797,58.414100000000005Q107.2344,56.4062,107.2344,52.9688Q107.2344,50.3438,108.3281,48.4219Q109.0469,47.1562,110.9844,46.0781Q112.9219,45,114.75,45Q117.5156,45,119.1328,46.625Q120.75,48.25,120.75,51.1719L120.7188,52.0938Q119.6875,52.3438,118.75,52.4219Q117.0781,52.5469,114.1094,52.5469L110.2031,52.5469ZM110.25,51.375Q112.6719,51.4844,115.5938,51.4844Q116.7656,51.4844,117.8594,51.375L117.8594,50.5Q117.8594,49.125,117.3125,47.8906Q116.9688,47.125,116.1094,46.6172Q115.25,46.1094,114.125,46.1094Q112.375,46.1094,111.3281,47.3906Q110.2812,48.6719,110.25,51.375Z" fill="#FEF174" fill-opacity="1"/></g><g><path d="M222.6406,41.2512L218,50.9148Q215.3906,56.3562,213.7188,60.4219L213.0938,60.4219Q212.5156,59.0303,209.7812,53.2759L204.1875,41.689L204.1875,53.7661Q204.1875,57.9844,204.52344,58.5547Q204.85938,59.125,206.60938,59.125L207.1875,59.125L207.1875,60.1094Q205.01562,60,203.65625,60Q202.67188,60,199.734375,60.1094L199.734375,59.125L200.75,59.125Q201.78125,59.125,202.125,58.8281Q202.46875,58.5312,202.54688,57.75Q202.75,55.5625,202.75,53.0312L202.75,44.1875Q202.75,40.9844,202.60938,39.95312Q202.54688,39.42188,202.14844,39.14062Q201.75,38.85938,200.5625,38.85938L199.734375,38.85938L199.734375,37.875Q202.45312,37.98438,203.15625,37.98438Q204.04688,37.98438,205.6875,37.875Q207.57812,42.0803,210.0469,47.1453L214.1562,55.6025L217.9531,47.7705Q219.9531,43.6592,222.5156,37.875Q224.4688,37.98438,225.2656,37.98438Q226.1875,37.98438,228.5938,37.875L228.5938,38.85938L227.5781,38.85938Q226.2031,38.85938,225.8984,39.33594Q225.5938,39.8125,225.5938,42.7656L225.5938,54.1875Q225.5938,58,225.9141,58.5625Q226.2344,59.125,227.7031,59.125L228.5938,59.125L228.5938,60.1094Q226.4219,60,224.4375,60Q222.25,60,219.8594,60.1094L219.8594,59.125L220.8906,59.125Q222.125,59.125,222.3828,58.585899999999995Q222.6406,58.0469,222.6406,53.9534L222.6406,41.2512ZM233.125,52.5469Q233.2031,55.625,234.7031,57.2188Q236.2031,58.8125,238.6406,58.8125Q239.7344,58.8125,240.8125,58.4531Q241.8906,58.0938,242.9531,57.375L243.2188,57.6094L242.7188,58.9219Q241.4219,59.6719,240.0469,60.0469Q238.6719,60.4219,237.2188,60.4219Q234.0469,60.4219,232.1016,58.414100000000005Q230.1562,56.4062,230.1562,52.9688Q230.1562,50.3438,231.25,48.4219Q231.9688,47.1562,233.9062,46.0781Q235.8438,45,237.6719,45Q240.4375,45,242.0547,46.625Q243.6719,48.25,243.6719,51.1719L243.6406,52.0938Q242.6094,52.3438,241.6719,52.4219Q240,52.5469,237.0312,52.5469L233.125,52.5469ZM233.1719,51.375Q235.5938,51.4844,238.5156,51.4844Q239.6875,51.4844,240.7812,51.375L240.7812,50.5Q240.7812,49.125,240.2344,47.8906Q239.8906,47.125,239.0312,46.6172Q238.1719,46.1094,237.0469,46.1094Q235.2969,46.1094,234.25,47.3906Q233.2031,48.6719,233.1719,51.375ZM250.25,47.9844L252.6094,45.8906Q253.0312,45.5156,253.5,45.3438Q254.5312,45,255.5625,45Q257.2344,45,258.4531,45.6797Q259.6719,46.3594,260.2031,47.4453Q260.7344,48.5312,260.7344,50.8438L260.6562,55.7656Q260.6562,58.3125,260.875,58.7031Q261.1719,59.2031,262.0312,59.2031L263.1562,59.2031L263.1562,60.1094Q261.4844,60,260.2656,60Q259.0781,60,257.7188,60.1094Q258.0156,57.0625,258.0156,51.875Q258.0156,49.7812,257.6484,48.9062Q257.2812,48.0312,256.4141,47.5Q255.5469,46.9688,254.3281,46.9688Q252.8125,46.9688,251.7578,47.7344Q250.7031,48.5,250.4531,49.4219Q250.2969,50.0312,250.2969,52.6094Q250.2969,55.4688,250.3438,57.9219Q250.3594,58.6562,250.5625,58.8438Q250.9531,59.2031,251.8438,59.2031L252.9531,59.2031L252.9531,60.1094Q250.3125,60,248.75,60Q247.0938,60,244.9844,60.1094L244.9844,59.2031L246.1094,59.2031Q247.2656,59.2031,247.4609,58.6648Q247.6562,58.1265,247.6562,52.1809Q247.6562,49.5125,247.5938,47.9988Q247.5625,47.4995,247.3438,47.3123Q247.125,47.125,246.1094,47.125L244.9844,47.125L244.9844,46.2188Q246.3281,46.0625,247.3906,45.7969Q248.4531,45.5312,249.7812,44.9844Q249.9219,44.9219,250.0469,44.9219Q250.2969,44.9219,250.2969,45.2812L250.2812,45.875L250.25,47.9844ZM276.3438,60.1094L276.5312,57.2969L275.6094,58.2969Q274.5312,59.4688,273.4141,59.9453Q272.2969,60.4219,270.6562,60.4219Q269.25,60.4219,268.2344,59.8281Q267.2188,59.2344,266.7578,58.289100000000005Q266.2969,57.3438,266.2969,55.2969Q266.2969,54.2344,266.3438,52.8281L266.3906,50.3125Q266.3906,47.6719,266.2422,47.375Q266.0938,47.0781,265.25,47.0781L263.8594,47.0781L263.8594,46.2188Q265.9844,46.0312,267.7812,45.4375L269.0781,44.9531Q269.3438,44.9531,269.3438,45.3438L269.2344,46.9375Q269.0156,50.25,269.0156,53.0938Q269.0156,55.9375,269.25,56.726600000000005Q269.4844,57.5156,270.2344,58.039100000000005Q270.9844,58.5625,272.0625,58.5625Q273.5156,58.5625,274.7266,57.625Q275.9375,56.6875,276.3125,55.7344Q276.5156,55.1875,276.5156,52.4375Q276.5156,47.8125,276.3438,47.4062Q276.1875,47.0781,274.9375,47.0781L273.7031,47.0781L273.7031,46.2188Q275.3125,46.0312,276.4375,45.7812Q277.5625,45.5312,278.8125,45.0312Q278.9688,44.9531,279.0938,44.9531Q279.3594,44.9531,279.3594,45.25L279.2969,46.7031Q279.0625,52.0469,279.0625,56.1094Q279.0625,58.3906,279.2969,58.7188Q279.6406,59.2031,280.7812,59.2031L281.6875,59.2031L281.6875,60.1094Q279.7344,60,278.375,60Q277.3594,60,276.3438,60.1094Z" fill="#FEF174" fill-opacity="1"/></g><g><path d="M365.7117,48.9844Q365.7117,43.8438,369.0242,40.7031Q372.3367,37.5625,377.8523,37.5625Q383.2586,37.5625,386.3289,40.4766Q389.3992,43.3906,389.3992,48.2188Q389.3992,53.4219,385.8367,56.9219Q382.2742,60.4219,376.8523,60.4219Q373.4617,60.4219,371.0086,59.0469Q368.5555,57.6719,367.1336,55.0312Q365.7117,52.3906,365.7117,48.9844ZM368.8836,47.7031Q368.8836,51.2344,370.0945,53.851600000000005Q371.3055,56.4688,373.3367,57.773399999999995Q375.368,59.0781,377.9773,59.0781Q380.3992,59.0781,382.2117,57.9688Q384.0242,56.8594,385.0633,54.6562Q386.1023,52.4531,386.1023,49.2969Q386.1023,45.9844,384.9539,43.6328Q383.8055,41.2812,381.8055,40.0938Q379.8055,38.90625,377.0711,38.90625Q374.5711,38.90625,372.7586,39.95312Q370.9461,41,369.9148,43.0234Q368.8836,45.0469,368.8836,47.7031ZM395.8992,47.7188L395.8992,53.7969Q395.8992,58.1719,396.157,58.6875Q396.4148,59.2031,397.7273,59.2031L399.1023,59.2031L399.1023,60.1094Q396.5398,60,395.4305,60L390.493,60.1094L390.493,59.2031L391.5398,59.2031Q392.7586,59.2031,392.9773,58.7188Q393.2742,58.0625,393.2742,53.7969L393.2742,47.7188L391.0242,47.8594L391.0242,47.2087Q392.1336,46.6665,393.2742,46.0625L393.2742,44.0747Q393.2742,42.5566,393.6883,41.6021Q394.1023,40.6472,395.3523,39.34814Q397.0086,37.610839999999996,397.9305,37.07861Q398.5398,36.71875,399.4617,36.71875Q400.0711,36.71875,400.8211,36.92188Q400.7742,37.71875,400.7742,38.20312Q400.7742,38.6875,400.8211,39.53125L400.4305,39.70312Q399.5086,38.89062,398.3211,38.89062Q397.0086,38.89062,396.4539,39.7832Q395.8992,40.6758,395.8992,44.1362L395.8992,46.2188Q398.4305,46.2031,400.0398,46.0625L400.1492,46.2188L399.8992,47.7188L397.9773,47.6719Q397.2742,47.6719,395.8992,47.7188ZM406.5555,47.7188L406.5555,53.7969Q406.5555,58.1719,406.8133,58.6875Q407.0711,59.2031,408.3836,59.2031L409.7586,59.2031L409.7586,60.1094Q407.1961,60,406.0867,60L401.1492,60.1094L401.1492,59.2031L402.1961,59.2031Q403.4148,59.2031,403.6336,58.7188Q403.9305,58.0625,403.9305,53.7969L403.9305,47.7188L401.6805,47.8594L401.6805,47.2087Q402.7898,46.6665,403.9305,46.0625L403.9305,44.0747Q403.9305,42.5566,404.3445,41.6021Q404.7586,40.6472,406.0086,39.34814Q407.6648,37.610839999999996,408.5867,37.07861Q409.1961,36.71875,410.118,36.71875Q410.7273,36.71875,411.4773,36.92188Q411.4305,37.71875,411.4305,38.20312Q411.4305,38.6875,411.4773,39.53125L411.0867,39.70312Q410.1648,38.89062,408.9773,38.89062Q407.6648,38.89062,407.1101,39.7832Q406.5555,40.6758,406.5555,44.1362L406.5555,46.2188Q409.0867,46.2031,410.6961,46.0625L410.8055,46.2188L410.5555,47.7188L408.6336,47.6719Q407.9305,47.6719,406.5555,47.7188ZM415.3055,52.5469Q415.3836,55.625,416.8836,57.2188Q418.3836,58.8125,420.8211,58.8125Q421.9148,58.8125,422.993,58.4531Q424.0711,58.0938,425.1336,57.375L425.3992,57.6094L424.8992,58.9219Q423.6023,59.6719,422.2273,60.0469Q420.8523,60.4219,419.3992,60.4219Q416.2273,60.4219,414.282,58.414100000000005Q412.3367,56.4062,412.3367,52.9688Q412.3367,50.3438,413.4305,48.4219Q414.1492,47.1562,416.0867,46.0781Q418.0242,45,419.8523,45Q422.618,45,424.2351,46.625Q425.8523,48.25,425.8523,51.1719L425.8211,52.0938Q424.7898,52.3438,423.8523,52.4219Q422.1805,52.5469,419.2117,52.5469L415.3055,52.5469ZM415.3523,51.375Q417.7742,51.4844,420.6961,51.4844Q421.868,51.4844,422.9617,51.375L422.9617,50.5Q422.9617,49.125,422.4148,47.8906Q422.0711,47.125,421.2117,46.6172Q420.3523,46.1094,419.2273,46.1094Q417.4773,46.1094,416.4305,47.3906Q415.3836,48.6719,415.3523,51.375ZM432.7117,48.5459Q433.3367,47.9524,434.0711,46.9839Q434.9461,45.8435,435.6961,45.4219Q436.4461,45,437.274,45Q438.134,45,438.587,45.2031Q438.805,45.2969,438.805,45.5L438.79,45.6562Q438.555,46.9219,438.524,49.2031L437.821,49.2031Q437.462,48.4062,436.9695,48.0781Q436.4773,47.75,435.7898,47.75Q434.868,47.75,434.0789,48.374300000000005Q433.2898,48.9983,433.0242,50.1218Q432.7586,51.2451,432.7586,54.5376Q432.7586,56.7065,432.9305,58.189Q432.993,58.7351,433.243,58.8755Q433.8367,59.2031,434.993,59.2031L435.9305,59.2031L435.9305,60.1094Q433.5398,60,431.3992,60Q429.3211,60,427.2898,60.1094L427.2898,59.2031L428.7898,59.0781Q429.5867,59.0156,429.7976,58.7812Q430.0086,58.5469,430.0711,57.2656Q430.1805,55.0156,430.1805,51.9219Q430.1805,48.1562,429.8836,47.5Q429.6805,47.0781,428.6023,47.0781L427.2898,47.0781L427.2898,46.1719Q428.8055,46,429.993,45.7266Q431.1805,45.4531,432.1023,45.0312Q432.3211,44.9219,432.4617,44.9219Q432.6336,44.9219,432.6961,45.0161Q432.7586,45.1101,432.7586,45.4397L432.7117,48.5459ZM441.79,55.3281L441.79,56.3477Q441.79,57.5713,442.009,57.8694Q442.415,58.371300000000005,443.595,58.842Q444.774,59.3125,446.024,59.3125Q447.634,59.3125,448.649,58.4443Q449.665,57.575900000000004,449.665,56.3716Q449.665,55.4172,449.071,54.8384Q448.477,54.2595,446.805,53.9155Q443.696,53.2898,442.696,52.8206Q441.696,52.351299999999995,441.196,51.5693Q440.696,50.787400000000005,440.696,49.6768Q440.696,47.5964,442.204,46.2983Q443.712,45,446.477,45Q448.665,45,450.837,45.875Q450.712,46.9375,450.634,49.4375L449.712,49.4375Q449.68,48.0625,449.415,47.625Q449.055,47.0469,448.102,46.5781Q447.149,46.1094,446.071,46.1094Q444.649,46.1094,443.798,46.8369Q442.946,47.5642,442.946,48.659400000000005Q442.946,49.707499999999996,443.618,50.2393Q444.29,50.7869,447.337,51.397Q449.587,51.8506,450.305,52.241Q451.024,52.6311,451.462,53.427499999999995Q451.899,54.223600000000005,451.899,55.2542Q451.899,57.3618,450.095,58.8918Q448.29,60.4219,445.274,60.4219Q443.352,60.4219,440.962,59.821Q440.54,59.7131,440.54,59.4939L440.587,59.274699999999996Q440.649,59.0398,440.696,58.4446Q440.837,56.9255,440.837,56.0798L440.821,55.3281L441.79,55.3281Z" fill="#FEF174" fill-opacity="1"/></g><g><path d="M544.5156,38.92188Q544.0781,40.5469,544.0469,43.2344L542.9687,43.2344L542.9687,41.9844Q542.9687,40.7656,542.6406,40.3281Q542.3125,39.89062,540.9297,39.39844Q539.5469,38.90625,538.0156,38.90625Q535.5156,38.90625,534.0859,40.1699Q532.6562,41.4336,532.6562,43.4148Q532.6562,44.662800000000004,533.2422,45.5601Q533.8281,46.457,534.8203,46.855000000000004Q535.8125,47.252700000000004,539.0312,47.5559Q542.25,47.868700000000004,543.3828,48.3845Q544.5156,48.900400000000005,545.1953,50.0417Q545.875,51.182900000000004,545.875,52.7461Q545.875,55.8882,543.25,58.155Q540.625,60.4219,536.25,60.4219Q534.75,60.4219,533.2265,60.1172Q531.7031,59.8125,530.1562,59.2188Q530.4375,57.3438,530.4219,54.4062L531.4844,54.4062L531.4844,55.1875Q531.4844,56.7031,531.6406,57.0625Q531.7969,57.4219,532.375,57.8281Q533.2344,58.4375,534.4219,58.7578Q535.6094,59.0781,536.9844,59.0781Q539.9375,59.0781,541.5469,57.6875Q543.1562,56.2969,543.1562,54.1562Q543.1562,52.9062,542.6094,52.039100000000005Q542.0625,51.1719,541.0781,50.75Q540.0937,50.3281,537.4375,50.1094Q533.9062,49.8281,532.6406,49.2656Q531.375,48.7031,530.6562,47.4922Q529.9375,46.2812,529.9375,44.4844Q529.9375,41.4375,532.1406,39.5Q534.3437,37.5625,538.2344,37.5625Q539.7969,37.5625,541.3672,37.89844Q542.9375,38.23438,544.5156,38.92188ZM550.9844,38.01562Q551.7031,38.01562,552.2187,38.53906Q552.7344,39.0625,552.7344,39.79688Q552.7344,40.5312,552.2187,41.0469Q551.7031,41.5625,550.9844,41.5625Q550.25,41.5625,549.7344,41.0469Q549.2187,40.5312,549.2187,39.79688Q549.2187,39.0625,549.7344,38.53906Q550.25,38.01562,550.9844,38.01562ZM552.2344,44.9375L552.6094,45.1719Q552.5,46.3438,552.4687,47.75Q552.3594,52.3125,552.3594,54.4844Q552.3594,56.5156,552.5,57.9531Q552.5625,58.5156,552.7969,58.7344Q553.0312,58.9531,553.9219,59.0625L554.9844,59.2031L554.9844,60.1094Q552.7031,60,550.8281,60Q548.9844,60,547.1094,60.1094L547.1094,59.2031L548.4531,59.0623Q549.2344,58.9995,549.414,58.7725Q549.5937,58.5452,549.6406,57.2605Q549.7187,55.271,549.7187,51.7776Q549.7187,49.3494,549.6406,48.0334Q549.6094,47.5479,549.3672,47.3442Q549.125,47.1406,548.2812,47.1406L547.1094,47.1406L547.1094,46.2344Q549.0156,45.9565,549.914,45.7251Q550.8125,45.4934,552.2344,44.9375ZM569.6094,47.9062Q569.9687,48.9084,569.9687,49.5505Q569.9687,50.9441,569.125,52.2361Q568.2812,53.5278,566.7187,54.3186Q565.1562,55.1094,563.3437,55.1094L562.6094,55.0938Q561.5781,55.8555,561.3047,56.2288Q561.0312,56.6018,561.0312,56.9595Q561.0312,57.5503,561.6406,57.8923Q562.25,58.2344,564.125,58.2344Q564.8437,58.2344,566.1875,58.1816Q568.1094,58.0938,568.9687,58.0938Q570.2031,58.0938,570.8594,58.4929Q571.5156,58.8918,571.9844,59.8855Q572.4531,60.8789,572.4531,62.1309Q572.4531,63.8833,571.3906,65.4871Q570.3281,67.0911,568.2969,68.061Q566.2656,69.0312,563.625,69.0312Q560.4062,69.0312,558.6719,67.6328Q556.9375,66.2344,556.9375,64.1875Q556.9375,62.9219,557.8437,61.625Q559.4687,60.8594,560.5781,60.0781Q559.2969,59.6575,558.9297,59.3071Q558.5625,58.9565,558.5625,58.4114Q558.5625,57.7573,558.9219,57.118700000000004Q559.125,56.7292,559.9531,56.1685L561.4687,55.0938Q559.5937,54.624300000000005,558.7656,53.7637Q557.6719,52.6055,557.6719,50.8059Q557.6719,49.225300000000004,558.4844,47.926500000000004Q559.2969,46.627700000000004,560.875,45.8765Q562.8906,44.9219,564.7656,44.9219Q565.9531,44.9219,566.8515,45.2344Q567.75,45.5469,568.6875,46.2969L570,46.2969Q572.0312,46.2969,573.1562,46.1562L573.3281,46.487300000000005Q572.8594,47.1653,572.5,47.9062L569.6094,47.9062ZM567.2344,50.376000000000005Q567.2344,48.4155,566.2344,47.2234Q565.2344,46.0312,563.7187,46.0312Q562.2187,46.0312,561.3047,47.0039Q560.3906,47.976299999999995,560.3906,49.7017Q560.3906,51.787800000000004,561.3828,52.9722Q562.375,54.1562,563.875,54.1562Q565.375,54.1562,566.3047,53.160399999999996Q567.2344,52.1643,567.2344,50.376000000000005ZM562.9844,60.3281Q561.875,60.3281,561.4687,60.5786Q560.1562,61.424099999999996,559.875,61.9409Q559.4062,62.7549,559.4062,63.9919Q559.4062,65.6985,560.6719,66.8101Q561.9375,67.9219,564.1875,67.9219Q565.9219,67.9219,567.2344,67.2798Q568.5469,66.6379,569.2734,65.51830000000001Q570,64.3989,570,63.209Q570,62.1914,569.4922,61.424099999999996Q568.9844,60.657,568.2812,60.4377Q567.9219,60.3281,566.6406,60.3281L562.9844,60.3281ZM579.0781,47.9844L581.4375,45.8906Q581.8594,45.5156,582.3281,45.3438Q583.3594,45,584.3906,45Q586.0625,45,587.2812,45.6797Q588.5,46.3594,589.0312,47.4453Q589.5625,48.5312,589.5625,50.8438L589.4844,55.7656Q589.4844,58.3125,589.7031,58.7031Q590,59.2031,590.8594,59.2031L591.9844,59.2031L591.9844,60.1094Q590.3125,60,589.0937,60Q587.9062,60,586.5469,60.1094Q586.8437,57.0625,586.8437,51.875Q586.8437,49.7812,586.4765,48.9062Q586.1094,48.0312,585.2422,47.5Q584.375,46.9688,583.1562,46.9688Q581.6406,46.9688,580.5859,47.7344Q579.5312,48.5,579.2812,49.4219Q579.125,50.0312,579.125,52.6094Q579.125,55.4688,579.1719,57.9219Q579.1875,58.6562,579.3906,58.8438Q579.7812,59.2031,580.6719,59.2031L581.7812,59.2031L581.7812,60.1094Q579.1406,60,577.5781,60Q575.9219,60,573.8125,60.1094L573.8125,59.2031L574.9375,59.2031Q576.0937,59.2031,576.289,58.6648Q576.4844,58.1265,576.4844,52.1809Q576.4844,49.5125,576.4219,47.9988Q576.3906,47.4995,576.1719,47.3123Q575.9531,47.125,574.9375,47.125L573.8125,47.125L573.8125,46.2188Q575.1562,46.0625,576.2187,45.7969Q577.2812,45.5312,578.6094,44.9844Q578.75,44.9219,578.875,44.9219Q579.125,44.9219,579.125,45.2812L579.1094,45.875L579.0781,47.9844ZM604.7187,38.01562Q605.4375,38.01562,605.9531,38.53906Q606.4687,39.0625,606.4687,39.79688Q606.4687,40.5312,605.9531,41.0469Q605.4375,41.5625,604.7187,41.5625Q603.9844,41.5625,603.4687,41.0469Q602.9531,40.5312,602.9531,39.79688Q602.9531,39.0625,603.4687,38.53906Q603.9844,38.01562,604.7187,38.01562ZM605.9687,44.9375L606.3437,45.1719Q606.2344,46.3438,606.2031,47.75Q606.0937,52.3125,606.0937,54.4844Q606.0937,56.5156,606.2344,57.9531Q606.2969,58.5156,606.5312,58.7344Q606.7656,58.9531,607.6562,59.0625L608.7187,59.2031L608.7187,60.1094Q606.4375,60,604.5625,60Q602.7187,60,600.8437,60.1094L600.8437,59.2031L602.1875,59.0623Q602.9687,58.9995,603.1484,58.7725Q603.3281,58.5452,603.375,57.2605Q603.4531,55.271,603.4531,51.7776Q603.4531,49.3494,603.375,48.0334Q603.3437,47.5479,603.1015,47.3442Q602.8594,47.1406,602.0156,47.1406L600.8437,47.1406L600.8437,46.2344Q602.75,45.9565,603.6484,45.7251Q604.5469,45.4934,605.9687,44.9375ZM615.016,47.9844L617.375,45.8906Q617.797,45.5156,618.266,45.3438Q619.297,45,620.328,45Q622,45,623.219,45.6797Q624.437,46.3594,624.969,47.4453Q625.5,48.5312,625.5,50.8438L625.422,55.7656Q625.422,58.3125,625.641,58.7031Q625.937,59.2031,626.797,59.2031L627.922,59.2031L627.922,60.1094Q626.25,60,625.031,60Q623.844,60,622.484,60.1094Q622.781,57.0625,622.781,51.875Q622.781,49.7812,622.414,48.9062Q622.047,48.0312,621.1800000000001,47.5Q620.312,46.9688,619.094,46.9688Q617.578,46.9688,616.523,47.7344Q615.469,48.5,615.219,49.4219Q615.062,50.0312,615.062,52.6094Q615.062,55.4688,615.109,57.9219Q615.125,58.6562,615.328,58.8438Q615.719,59.2031,616.609,59.2031L617.719,59.2031L617.719,60.1094Q615.078,60,613.516,60Q611.859,60,609.75,60.1094L609.75,59.2031L610.875,59.2031Q612.031,59.2031,612.227,58.6648Q612.422,58.1265,612.422,52.1809Q612.422,49.5125,612.359,47.9988Q612.328,47.4995,612.109,47.3123Q611.891,47.125,610.875,47.125L609.75,47.125L609.75,46.2188Q611.094,46.0625,612.156,45.7969Q613.219,45.5312,614.547,44.9844Q614.687,44.9219,614.812,44.9219Q615.062,44.9219,615.062,45.2812L615.047,45.875L615.016,47.9844ZM629.125,66.8438Q629.719,65.625,630.156,64.5469L640.828,38.82812Q641.312,37.65625,641.562,36.71875Q642.578,36.84375,643.125,36.84375L644.031,36.82812Q643.437,37.99854,643.062,38.90381L632.141,64.9531Q631.719,65.9375,631.437,66.8438L630.297,66.7656Q629.906,66.7656,629.125,66.8438ZM660.5,60.1094L660.687,57.2969L659.766,58.2969Q658.687,59.4688,657.5699999999999,59.9453Q656.453,60.4219,654.812,60.4219Q653.406,60.4219,652.391,59.8281Q651.375,59.2344,650.914,58.289100000000005Q650.453,57.3438,650.453,55.2969Q650.453,54.2344,650.5,52.8281L650.547,50.3125Q650.547,47.6719,650.398,47.375Q650.25,47.0781,649.406,47.0781L648.016,47.0781L648.016,46.2188Q650.141,46.0312,651.937,45.4375L653.234,44.9531Q653.5,44.9531,653.5,45.3438L653.391,46.9375Q653.172,50.25,653.172,53.0938Q653.172,55.9375,653.406,56.726600000000005Q653.641,57.5156,654.391,58.039100000000005Q655.141,58.5625,656.219,58.5625Q657.672,58.5625,658.883,57.625Q660.094,56.6875,660.469,55.7344Q660.672,55.1875,660.672,52.4375Q660.672,47.8125,660.5,47.4062Q660.344,47.0781,659.094,47.0781L657.859,47.0781L657.859,46.2188Q659.469,46.0312,660.594,45.7812Q661.719,45.5312,662.969,45.0312Q663.125,44.9531,663.25,44.9531Q663.516,44.9531,663.516,45.25L663.453,46.7031Q663.219,52.0469,663.219,56.1094Q663.219,58.3906,663.453,58.7188Q663.797,59.2031,664.937,59.2031L665.844,59.2031L665.844,60.1094Q663.891,60,662.531,60Q661.516,60,660.5,60.1094ZM672.719,48.1562L674.906,46.2188Q675.734,45.4844,676.312,45.2969Q677.234,45,678.469,45Q681.25,45,682.969,46.7188Q684.687,48.4375,684.687,51.1562Q684.687,52.5156,684.297,53.835899999999995Q683.906,55.1562,683.344,55.9922Q682.781,56.8281,682.078,57.3906Q681.844,57.5781,680.172,58.625L679.547,59.0781Q678.359,59.9062,677.633,60.164100000000005Q676.906,60.4219,675.969,60.4219Q675.234,60.4219,674.422,60.210899999999995Q673.609,60,672.719,59.5938L672.719,61.7969Q672.719,65.1875,672.812,66.5781Q672.859,67.1875,673.203,67.46090000000001Q673.547,67.7344,674.656,67.7344L675.5,67.7344L675.5,68.6094Q672.547,68.5,671.172,68.5Q669.656,68.5,667.312,68.6094L667.312,67.7344L668.453,67.7344Q669.656,67.7344,669.875,67.2188Q670.094,66.7031,670.094,61.7188L670.094,52.125Q670.094,49.625,669.969,48.2656Q669.906,47.6094,669.664,47.398399999999995Q669.422,47.1875,668.531,47.1875L667.312,47.1875L667.312,46.2188Q669.484,45.9844,671.578,45.3281L672.531,44.9531Q672.781,44.9531,672.781,45.3906L672.734,47.0469L672.719,48.1562ZM672.719,56.75Q673.719,57.875,674.719,58.3438Q675.719,58.8125,676.875,58.8125Q679.344,58.8125,680.656,56.9531Q681.969,55.0938,681.969,52.5312Q681.969,50.8125,681.367,49.585899999999995Q680.766,48.3594,679.609,47.664100000000005Q678.453,46.9688,677.125,46.9688Q676.187,46.9688,675.289,47.3438Q674.391,47.7188,673.719,48.3828Q673.047,49.0469,672.859,49.6094Q672.719,50.0312,672.719,51.8438L672.719,56.75Z" fill="#FEF174" fill-opacity="1"/></g></g><rect x="1.5" y="12.5" width="718" height="74" rx="0" fill-opacity="0" stroke-opacity="1" stroke="#FEF174" fill="none" stroke-width="3"/></g></g><g filter="url(#master_svg2_415_6467)"><g clip-path="url(#master_svg3_415_6467)"><rect x="718" y="11" width="302" height="77" rx="0" fill="#FEF174" fill-opacity="1"/><g><g><path d="M736.80176,56.0987L738.2627,56.0987Q738.2793,58.5536,738.42041,58.9767Q738.56152,59.3995,739.375,60.088Q740.18848,60.7762,741.4834,61.2076Q742.7783,61.6387,744.1396,61.6387Q746.4805,61.6387,747.8833,60.3946Q749.2861,59.1505,749.2861,57.292699999999996Q749.2861,55.584,748.3564,54.6717Q747.4102,53.7594,744.7705,53.3778Q740.85254,52.8131,739.48291,52.1488Q738.11328,51.4842,737.32471,50.1556Q736.53613,48.8267,736.53613,46.966499999999996Q736.53613,43.8439,738.73584,41.67633Q740.93555,39.50879,745.7666,39.50879Q747.6592,39.50879,749.1284,39.79128Q750.5977,40.07376,752.0752,40.722L752.2412,41.12096Q751.9756,42.1679,751.8677,43.0156Q751.7598,43.8631,751.6768,45.9403L750.2324,45.9403Q750.1494,43.3891,749.9834,43.0745Q749.668,42.527699999999996,748.3813,41.92302Q747.0947,41.31836,745.4346,41.31836Q743.1602,41.31836,741.90674,42.4216Q740.65332,43.5246,740.65332,45.2662Q740.65332,46.3279,741.16797,47.115899999999996Q741.68262,47.9037,742.604,48.277Q743.5254,48.6503,746.5635,49.1312Q749.3193,49.546,750.2988,49.944199999999995Q751.9092,50.5911,752.7393,51.9185Q753.5693,53.2455,753.5693,55.269400000000005Q753.5693,58.7866,750.8799,61.1175Q748.1904,63.4482,743.5254,63.4482Q741.4502,63.4482,739.75684,63.0501Q738.06348,62.6519,736.25391,61.7393Q736.55273,60.578,736.65234,59.6325Q736.78516,58.3217,736.80176,56.0987ZM762.5906,63.1162L762.5906,61.7217Q763.5369,61.7217,764.5662,61.5559Q765.0477,61.472899999999996,765.2469,61.2823Q765.4461,61.091300000000004,765.5457,60.577200000000005Q765.6619000000001,59.8639,765.7449,55.335499999999996Q765.7947,52.1174,765.7947,48.7668Q765.7947,42.1814,765.7532,42.0571Q765.7117,41.93262,764.5828,41.93262Q762.2752,41.93262,760.615,42.0654Q759.6521,42.1484,759.5276,42.2314Q759.4031,42.3145,759.3367,42.522Q759.2703,42.7295,759.0545,45.4355L757.6268,45.4355Q757.66,42.2553,757.4441,39.95755L757.6268,39.82422Q762.8563,40.07324,767.8035,40.07324Q772.7342,40.07324,778.8436,39.82422L779.0262,40.09062Q778.7107,42.3718,778.5779,45.4355L777.2,45.4355Q777.0506,42.6366,776.9012,42.4019Q776.785,42.2174,776.3699,42.1505Q775.0418,41.93262,771.0906,41.93262Q770.7586,41.93262,770.6922,42.0322Q770.6258,42.1487,770.6258,42.9129L770.5262,54.0785Q770.5262,58.9303,770.6092,60.0353Q770.6922,61.140100000000004,771.0076,61.3728Q771.2234,61.5222,773.6141,61.7217L773.6141,63.1162Q771.1736,63,768.4344,63Q764.8318,63,762.5906,63.1162ZM782.3199,61.6055Q783.8805,61.5225,784.2456999999999,61.29Q784.4947,61.123999999999995,785.026,60.0283Q786.0387,57.8701,787.6158,54.0352L793.4928,39.6416L795.9331999999999,39.6416L803.4371,57.4717Q804.898,60.8465,805.2384,61.169399999999996Q805.5787,61.4924,807.3385,61.6055L807.3385,63.1162Q804.6324,63,802.2252,63Q799.3531,63,796.7633,63.1162L796.7633,61.6055Q798.7389000000001,61.5243,799.046,61.3865Q799.3531,61.2488,799.3531,60.8919Q799.3531,60.5837,798.6559,58.783699999999996L797.5602,56.0107Q795.5016,55.960899999999995,792.9615,55.960899999999995Q790.7535,55.960899999999995,788.9439,56.0107L788.2135,57.8756Q787.9146,58.6379,787.483,60.146100000000004Q787.3834,60.4864,787.3834,60.7622Q787.3834,61.1352,787.7071,61.2893Q788.0309,61.4433,790.0396,61.6055L790.0396,63.1162Q788.4127,63,785.9889000000001,63Q783.6813,63,782.3199,63.1162L782.3199,61.6055ZM793.2105,45.5323L789.7076,54.0352Q791.235,54.1182,793.0777,54.1182Q795.0035,54.1182,796.7633,54.0352L793.2105,45.5323ZM810.6156,63.1162L810.6156,61.7217Q812.5414,61.5557,812.8235999999999,61.4062Q813.0062,61.3066,813.0893,61.0908Q813.2553,60.6924,813.3217,58.401399999999995Q813.4047,54.848600000000005,813.4047,52.8066Q813.4047,50.050799999999995,813.3383,45.8008Q813.2719,42.6299,813.0229,41.91602Q812.9564,41.7002,812.7572,41.58398Q812.4916000000001,41.41797,810.6156,41.21875L810.6156,39.82422Q814.0521,39.94043,815.0482,39.94043L823.3656,39.82422Q826.0717,39.82422,827.3085,40.34639Q828.5453,40.86856,829.2675,42.0208Q829.9896,43.1728,829.9896,44.731Q829.9896,46.7201,828.8358000000001,48.2205Q827.682,49.720600000000005,824.8266,50.8809L828.3627,56.21L831.1186,60.2939Q831.8987999999999,61.29,832.281,61.4976Q832.662,61.7051,833.526,61.7217L833.526,63L832.546,63.0166Q828.3295,63.049800000000005,827.1176,63.1162Q825.6732,60.8086,822.8012,56.425799999999995L819.3812,51.2295Q819.5307,50.9473,819.6303,50.6318Q820.2943,50.7148,820.6098,50.7148Q822.1537,50.7148,823.6479,49.4674Q825.142,48.219899999999996,825.142,45.9082Q825.142,43.8958,823.9633,42.7814Q822.7846,41.66699,820.4271,41.66699Q819.6801,41.66699,818.4018,41.7832L818.2855,46.684799999999996L818.1360999999999,52.899Q818.1360999999999,55.0089,818.3021,58.2989Q818.435,60.7746,818.5678,61.0737Q818.6674,61.2898,818.933,61.4226Q819.2816,61.6221,821.1908,61.7217L821.1908,63.1162Q818.2025,63,815.8949,63Q813.4379,63,810.6156,63.1162ZM841.3679999999999,63.1162L841.3679999999999,61.7217Q842.315,61.7217,843.344,61.5559Q843.825,61.472899999999996,844.025,61.2823Q844.224,61.091300000000004,844.323,60.577200000000005Q844.44,59.8639,844.523,55.335499999999996Q844.572,52.1174,844.572,48.7668Q844.572,42.1814,844.531,42.0571Q844.489,41.93262,843.361,41.93262Q841.053,41.93262,839.393,42.0654Q838.4300000000001,42.1484,838.3050000000001,42.2314Q838.181,42.3145,838.114,42.522Q838.048,42.7295,837.832,45.4355L836.404,45.4355Q836.438,42.2553,836.222,39.95755L836.404,39.82422Q841.634,40.07324,846.581,40.07324Q851.512,40.07324,857.621,39.82422L857.804,40.09062Q857.488,42.3718,857.356,45.4355L855.978,45.4355Q855.828,42.6366,855.679,42.4019Q855.563,42.2174,855.148,42.1505Q853.8199999999999,41.93262,849.8679999999999,41.93262Q849.5360000000001,41.93262,849.47,42.0322Q849.404,42.1487,849.404,42.9129L849.304,54.0785Q849.304,58.9303,849.387,60.0353Q849.47,61.140100000000004,849.785,61.3728Q850.001,61.5222,852.392,61.7217L852.392,63.1162Q849.951,63,847.212,63Q843.61,63,841.3679999999999,63.1162ZM884.2139999999999,63.4482Q878.088,63.4482,874.8340000000001,60.3022Q871.58,57.1562,871.58,51.6445Q871.58,47.793,873.157,45.0952Q874.734,42.3975,877.532,40.95312Q880.329,39.50879,884.7280000000001,39.50879Q888.962,39.50879,891.6510000000001,40.89502Q894.341,42.2812,895.793,44.7466Q897.246,47.2119,897.246,50.7979Q897.246,54.6826,895.652,57.5132Q894.058,60.3438,891.1610000000001,61.896Q888.264,63.4482,884.2139999999999,63.4482ZM884.845,61.6553Q888.181,61.6553,890.165,59.1879Q892.149,56.7205,892.149,51.6863Q892.149,46.4026,889.875,43.578Q888.032,41.30176,884.197,41.30176Q880.611,41.30176,878.644,43.6779Q876.677,46.0537,876.677,50.988299999999995Q876.677,54.5441,877.756,57.0115Q878.835,59.4787,880.5029999999999,60.567099999999996Q882.172,61.6553,884.845,61.6553ZM901.469,63.1162L901.469,61.7217Q903.395,61.5557,903.677,61.4062Q903.86,61.3066,903.943,61.0908Q904.109,60.6924,904.175,58.401399999999995Q904.258,54.848600000000005,904.258,52.8066Q904.258,50.050799999999995,904.192,45.8008Q904.126,42.6299,903.877,41.91602Q903.81,41.7002,903.611,41.58398Q903.345,41.41797,901.469,41.21875L901.469,39.82422Q904.906,39.94043,905.902,39.94043L914.219,39.82422Q916.925,39.82422,918.162,40.34639Q919.399,40.86856,920.121,42.0208Q920.843,43.1728,920.843,44.731Q920.843,46.7201,919.69,48.2205Q918.5360000000001,49.720600000000005,915.6800000000001,50.8809L919.216,56.21L921.972,60.2939Q922.7529999999999,61.29,923.134,61.4976Q923.516,61.7051,924.379,61.7217L924.379,63L923.4,63.0166Q919.183,63.049800000000005,917.971,63.1162Q916.527,60.8086,913.655,56.425799999999995L910.235,51.2295Q910.384,50.9473,910.484,50.6318Q911.148,50.7148,911.463,50.7148Q913.0070000000001,50.7148,914.502,49.4674Q915.996,48.219899999999996,915.996,45.9082Q915.996,43.8958,914.817,42.7814Q913.638,41.66699,911.281,41.66699Q910.534,41.66699,909.255,41.7832L909.139,46.684799999999996L908.99,52.899Q908.99,55.0089,909.156,58.2989Q909.289,60.7746,909.421,61.0737Q909.521,61.2898,909.787,61.4226Q910.135,61.6221,912.045,61.7217L912.045,63.1162Q909.056,63,906.749,63Q904.292,63,901.469,63.1162ZM928.885,63.1162L928.885,62.2529Q930.031,61.5894,930.512,61.2576Q930.745,58.3381,930.745,50.3257Q930.745,46.8589,930.67,44.5282Q930.595,42.1975,930.446,41.86569Q930.379,41.69994,930.23,41.616929999999996Q929.981,41.484120000000004,927.789,41.21875L927.789,39.82422Q930.296,39.90723,933.55,39.90723L941.735,39.82422Q946.201,39.82422,948.516,40.95312Q950.832,42.082,952.194,44.4062Q953.5550000000001,46.7305,953.5550000000001,50.050799999999995Q953.5550000000001,54.3174,951.4300000000001,57.4053Q949.3050000000001,60.4932,946.25,61.8047Q943.196,63.1162,939.726,63.1162L933.434,63Q931.923,63,928.885,63.1162ZM935.609,61.0576Q937.0029999999999,61.3066,938.4639999999999,61.3066Q942.1659999999999,61.3066,944.109,60.2452Q946.0509999999999,59.183499999999995,947.255,56.769999999999996Q948.458,54.3566,948.458,50.8399Q948.458,46.2119,946.068,43.7902Q943.9590000000001,41.63379,939.178,41.63379Q938.149,41.63379,935.609,41.7998L935.476,52.1413Q935.476,58.671099999999996,935.609,61.0576ZM958.841,63.1162L958.841,62.2197Q959.721,61.8213,960.451,61.29Q960.783,58.700199999999995,960.783,50.3994Q960.783,44.7383,960.667,42.8955Q960.617,41.91602,960.327,41.65869Q960.0360000000001,41.40137,957.862,41.21875L957.862,39.82422Q961.779,39.97363,964.054,39.97363L973.201,39.82422Q974.646,39.82422,975.808,39.94147L975.924,40.1259Q975.559,41.95311,975.393,44.9873L974.081,44.9873Q973.998,42.5635,973.89,42.3975Q973.782,42.2314,973.135,42.082Q971.7570000000001,41.7832,968.918,41.7832Q967.524,41.7832,965.664,41.89941Q965.448,47.0293,965.415,50.0674Q967.192,50.1836,968.752,50.1836Q971.06,50.1836,971.525,50.0342Q971.807,49.9346,971.923,49.5527Q972.023,49.2539,972.155,47.4609L973.583,47.4609Q973.5,50.272800000000004,973.5,51.1216L973.583,54.8652L972.155,54.8652Q972.039,52.678200000000004,971.857,52.3444Q971.7570000000001,52.1441,971.408,52.0606Q970.578,51.876999999999995,967.673,51.876999999999995Q966.76,51.876999999999995,965.531,51.9932Q965.498,52.8699,965.498,53.7796Q965.498,58.5103,965.664,61.0576L968.951,61.1074Q971.7570000000001,61.1074,974.081,60.8086Q974.496,59.274,974.8779999999999,57.3223L976.256,57.3223Q975.874,60.2786,975.808,63Q974.297,63.1162,972.903,63.1162Q971.989,63.1162,969.3,63.058099999999996Q966.793,63,964.685,63Q961.912,63,958.841,63.1162ZM980.2139999999999,63.1162L980.2139999999999,61.7217Q982.14,61.5557,982.422,61.4062Q982.604,61.3066,982.687,61.0908Q982.854,60.6924,982.92,58.401399999999995Q983.0029999999999,54.848600000000005,983.0029999999999,52.8066Q983.0029999999999,50.050799999999995,982.937,45.8008Q982.87,42.6299,982.621,41.91602Q982.5550000000001,41.7002,982.355,41.58398Q982.09,41.41797,980.2139999999999,41.21875L980.2139999999999,39.82422Q983.65,39.94043,984.646,39.94043L992.9639999999999,39.82422Q995.6700000000001,39.82422,996.9069999999999,40.34639Q998.144,40.86856,998.866,42.0208Q999.588,43.1728,999.588,44.731Q999.588,46.7201,998.434,48.2205Q997.28,49.720600000000005,994.425,50.8809L997.961,56.21L1000.717,60.2939Q1001.4970000000001,61.29,1001.879,61.4976Q1002.261,61.7051,1003.124,61.7217L1003.124,63L1002.145,63.0166Q997.928,63.049800000000005,996.716,63.1162Q995.271,60.8086,992.399,56.425799999999995L988.979,51.2295Q989.129,50.9473,989.229,50.6318Q989.893,50.7148,990.2080000000001,50.7148Q991.752,50.7148,993.246,49.4674Q994.74,48.219899999999996,994.74,45.9082Q994.74,43.8958,993.562,42.7814Q992.383,41.66699,990.025,41.66699Q989.278,41.66699,988,41.7832L987.884,46.684799999999996L987.734,52.899Q987.734,55.0089,987.9,58.2989Q988.033,60.7746,988.1659999999999,61.0737Q988.2660000000001,61.2898,988.531,61.4226Q988.88,61.6221,990.789,61.7217L990.789,63.1162Q987.8009999999999,63,985.4929999999999,63Q983.0360000000001,63,980.2139999999999,63.1162Z" fill="#141614" fill-opacity="1"/></g></g><rect x="719.5" y="12.5" width="299" height="74" rx="0" fill-opacity="0" stroke-opacity="1" stroke="#FEF174" fill="none" stroke-width="3"/></g></g></g></svg>